<?xml version="1.0" encoding="UTF-8"?>
<svg id="Layer_2" data-name="Layer 2" xmlns="http://www.w3.org/2000/svg" viewBox="0 0 658.62 659.51">
  <g id="Layer_1-2" data-name="Layer 1">
    <path d="M658.62,329.5C658.62,147.52,511.1,0,329.12,0v.51C147.32.72,0,148.16,0,330.01s147.52,329.5,329.5,329.5v-.51c181.8-.2,329.12-147.64,329.12-329.5ZM115,172.44h214.5v-.51h214.12c1.7,0,3.32.36,4.79,1.01l-219.4,184.2L110.21,173.45c1.47-.65,3.09-1.01,4.79-1.01ZM103,190.9l133.74,112.28-133.74,171.63V190.9ZM543.62,487.07h-214.5v.51H115c-1.24,0-2.43-.19-3.56-.54l136.16-174.73,78.3,65.74c2.95,2.47,6.65,1.45,8.8-2.17l76.32-64.08,136.16,174.73c-1.13.35-2.32.54-3.56.54ZM555.62,474.31l-133.74-171.63,133.74-112.28v283.92Z"/>
  </g>
</svg>