<?xml version="1.0" encoding="UTF-8"?>
<svg id="Layer_2" data-name="Layer 2" xmlns="http://www.w3.org/2000/svg" viewBox="0 0 659 659">
  <g id="Website">
    <g>
      <path d="M340.39,149.78v.12s0,60.87,0,60.87h58.17c-8.16-10.52-16.85-20.62-26.04-30.25-9.73-10.17-20.44-20.41-32.13-30.74Z"/>
      <path d="M467.65,191.4c-4.44-4.44-9.03-8.61-13.78-12.51-4.78-3.95-9.76-7.64-14.92-11.08-5.15-3.46-10.52-6.7-16.11-9.73-5.59-3.02-11.39-5.78-17.41-8.26l-.37-.37c-5.8-2.41-11.69-4.58-17.66-6.42-6.12-1.88-12.35-3.42-18.64-4.62-2.62-.53-5.19-.98-7.69-1.23l-2.58-.41c13.2,11.87,25.18,23.71,35.94,35.52,11.16,12.12,21.5,24.97,30.94,38.47h59.27c-2.29-3.03-4.7-6.01-7.19-8.87-3.07-3.56-6.38-7.07-9.81-10.51Z"/>
      <path d="M357.91,522.66l3.15-.45c2.58-.41,5.11-.86,7.6-1.39,6.29-1.26,12.51-2.85,18.64-4.74,6.12-1.88,12.12-4.11,17.99-6.66,6.02-2.56,11.8-5.29,17.33-8.18,5.53-2.89,10.98-6.13,16.35-9.73,5.16-3.44,10.14-7.14,14.92-11.08,4.78-3.88,9.36-8.18,13.82-12.51,3.39-3.39,6.66-6.91,9.77-10.51,2.53-2.9,4.99-5.89,7.32-8.99l-.12-.2h-59.4c-9.47,13.49-19.82,26.34-30.99,38.47-11.51,12.6-23.66,24.6-36.38,35.97Z"/>
      <path d="M372.42,478.35c9.19-9.59,17.88-19.65,26.04-30.13h-58.17v60.87c11.69-10.3,22.4-20.55,32.13-30.74Z"/>
      <path d="M300.99,136.34l-3.15.45c-2.58.41-5.11.86-7.6,1.39-6.29,1.26-12.51,2.85-18.64,4.74-6.12,1.88-12.12,4.11-17.99,6.66-6.02,2.56-11.8,5.29-17.33,8.18-5.53,2.89-10.98,6.13-16.35,9.73-5.16,3.44-10.14,7.14-14.92,11.08-4.78,3.88-9.36,8.18-13.82,12.51-3.39,3.39-6.66,6.91-9.77,10.51-2.53,2.9-4.99,5.89-7.32,8.99l.12.2h59.4c9.47-13.49,19.82-26.34,30.99-38.47,11.51-12.6,23.66-24.6,36.38-35.97Z"/>
      <path d="M286.48,180.65c-9.19,9.59-17.88,19.65-26.04,30.13h58.17v-60.87c-11.69,10.3-22.4,20.55-32.13,30.74Z"/>
      <path d="M191.25,467.6c4.44,4.44,9.03,8.61,13.78,12.51,4.78,3.95,9.76,7.64,14.92,11.08,5.15,3.46,10.52,6.7,16.11,9.73,5.59,3.02,11.39,5.78,17.41,8.26l.37.37c5.8,2.41,11.69,4.58,17.66,6.42,6.12,1.88,12.35,3.42,18.64,4.62,2.62.53,5.19.98,7.69,1.23l2.58.41c-13.2-11.87-25.18-23.71-35.94-35.52-11.16-12.12-21.5-24.97-30.94-38.47h-59.27c2.29,3.03,4.7,6.01,7.19,8.87,3.07,3.56,6.38,7.07,9.81,10.51Z"/>
      <path d="M329.5,0C147.52,0,0,147.52,0,329.5s147.52,329.5,329.5,329.5,329.5-147.52,329.5-329.5S511.48,0,329.5,0ZM138.58,225.86c3.35-6.17,6.99-12.26,10.79-17.9,3.8-5.64,7.89-11.2,12.26-16.35s9.16-10.63,14.06-15.53c4.85-4.89,9.93-9.53,15.25-13.9,5.36-4.36,10.94-8.46,16.72-12.26,5.76-4.09,11.77-7.52,17.9-10.83,6.13-3.31,12.88-6.58,19.46-9.36,6.67-2.85,13.5-5.33,20.44-7.44,6.72-2.11,13.54-3.88,20.44-5.31,7.03-1.44,14.18-2.52,21.46-3.23,7.15-.69,14.68-1.06,22.12-1.06s14.8.37,22.12,1.06c7.32.69,14.39,1.8,21.46,3.23,6.9,1.36,13.72,3.1,20.44,5.19,6.77,2.07,13.43,4.49,19.95,7.24h.45l.37.2c6.38,2.89,12.65,5.97,18.8,9.24,6.21,3.39,12.26,7.03,18.07,10.87,5.67,3.79,11.12,7.89,16.35,12.26,5.45,4.44,10.61,9.13,15.49,14.06,4.9,4.83,9.54,9.92,13.9,15.25,4.37,5.35,8.46,10.91,12.26,16.68,4.09,5.8,7.52,11.77,10.87,17.95,1.19,2.17,2.33,4.37,3.43,6.58H135.1c1.14-2.21,2.29-4.46,3.47-6.62ZM406.86,280.27l-24.53,98.72h-38.47l-13.86-53.14h-1.02l-13.9,53.14-38.47-.04-24.49-98.68h35.44l11.32,60.17h.78l12.59-60.17h34.46l13.12,59.64h.74l10.79-59.64h35.48ZM93.77,280.27h35.48l11.28,60.17h.78l12.59-60.17h34.46l13.12,59.64h.74l10.83-59.64h35.44l-24.53,98.72h-38.43l-13.9-53.14h-1.02l-13.86,53.14-38.47-.04-24.53-98.68ZM520.32,433.14c-3.35,6.17-6.99,12.26-10.79,17.9-3.8,5.64-7.89,11.2-12.26,16.35-4.37,5.15-9.16,10.63-14.06,15.53-4.84,4.89-9.93,9.53-15.25,13.9-5.36,4.36-10.94,8.46-16.72,12.26-5.76,4.09-11.77,7.52-17.9,10.83-6.13,3.31-12.88,6.58-19.46,9.36-6.67,2.85-13.5,5.33-20.44,7.44-6.72,2.11-13.54,3.88-20.44,5.31-7.03,1.44-14.18,2.52-21.46,3.23-7.15.69-14.68,1.06-22.12,1.06s-14.8-.37-22.12-1.06c-7.32-.69-14.39-1.8-21.46-3.23-6.9-1.36-13.72-3.1-20.44-5.19-6.77-2.07-13.43-4.49-19.95-7.24h-.45l-.37-.2c-6.38-2.89-12.65-5.97-18.8-9.24-6.21-3.39-12.26-7.03-18.07-10.87-5.67-3.79-11.12-7.89-16.35-12.26-5.45-4.44-10.61-9.13-15.49-14.06-4.9-4.83-9.54-9.92-13.9-15.25-4.37-5.35-8.46-10.91-12.26-16.68-4.09-5.8-7.52-11.77-10.87-17.95-1.19-2.17-2.33-4.37-3.43-6.58h388.34c-1.14,2.21-2.29,4.46-3.47,6.62ZM540.7,378.99h-38.47l-13.86-53.14h-1.02l-13.9,53.14-38.47-.04-24.49-98.68h35.44l11.32,60.17h.74l12.63-60.17h34.46l13.12,59.64h.69l10.83-59.64h35.48l-24.53,98.72Z"/>
      <path d="M318.5,509.22v-.12s0-60.87,0-60.87h-58.17c8.16,10.52,16.85,20.62,26.04,30.25,9.73,10.17,20.44,20.41,32.13,30.74Z"/>
    </g>
  </g>
</svg>