<?xml version="1.0" encoding="UTF-8"?>
<svg id="Layer_2" data-name="Layer 2" xmlns="http://www.w3.org/2000/svg" viewBox="0 0 2512.71 860.44">
  <defs>
    <style>
      .cls-1 {
        fill: #fff;
      }
    </style>
  </defs>
  <g id="Side_Text_White" data-name="Side Text White">
    <g>
      <g>
        <path class="cls-1" d="M466.07,0v63.43h325.42v728.07H63.43V63.43h353v161.85c-14.83,2.63-26.2,15.64-26.2,31.2v63.23c-50.79,13.4-88.25,59.65-88.25,114.65h237.17c0-54-36.11-99.54-85.49-113.87v-64.01c0-14.58-9.98-26.91-23.44-30.58V0H0v860.44h860.44V0h-394.37Z"/>
        <path class="cls-1" d="M422.99,528.46c30.65,0,55.49-24.84,55.49-55.49h-110.98c0,30.65,24.84,55.49,55.49,55.49Z"/>
      </g>
      <g>
        <path class="cls-1" d="M927.03,187.53v-110.9c0-44.29,26.85-70.45,72.54-70.45s72.54,26.16,72.54,70.45v13.95h-46.03v-15.69c0-16.39-8.72-26.16-25.11-26.16s-25.11,9.76-25.11,26.16v113.69c0,16.39,8.72,26.16,25.11,26.16s25.11-9.76,25.11-26.16v-29.99h-24.06v-44.29h70.1v73.23c0,43.94-26.85,69.75-72.54,69.75s-72.54-25.81-72.54-69.75Z"/>
        <path class="cls-1" d="M1103.84,186.83v-110.2c0-44.29,26.16-70.45,73.93-70.45s73.93,26.16,73.93,70.45v110.2c0,44.29-26.16,70.45-73.93,70.45s-73.93-26.16-73.93-70.45ZM1202.88,188.57v-113.69c0-16.39-8.72-26.16-25.11-26.16s-25.11,9.76-25.11,26.16v113.69c0,16.39,8.72,26.16,25.11,26.16s25.11-9.76,25.11-26.16Z"/>
        <path class="cls-1" d="M1279.95,190.32v-10.81h46.03v10.81c0,15,7.67,25.81,25.11,25.81,15.34,0,25.46-9.42,25.46-25.81,0-20.92-8.37-26.16-41.5-42.2-41.85-20.23-54.05-41.15-54.05-75.33,0-39.76,25.11-66.61,72.19-66.61s70.45,26.85,70.45,67.31v6.97h-46.03v-6.63c0-15.34-6.97-26.5-24.06-26.5-15,0-23.71,9.76-23.71,24.76,0,18.83,9.42,24.41,42.2,40.1,42.9,20.58,53.36,42.2,53.36,77.07,0,41.15-25.81,68-73.58,68s-71.84-26.85-71.84-66.96Z"/>
        <path class="cls-1" d="M1457.45,9.67h48.82v201.57h80.21v42.55h-129.03V9.67Z"/>
        <path class="cls-1" d="M1615.42,9.67h48.82v244.12h-48.82V9.67Z"/>
        <path class="cls-1" d="M1704.35,9.67h60.33l48.82,141.24V9.67h43.59v244.12h-49.17l-59.98-173.67v173.67h-43.59V9.67Z"/>
        <path class="cls-1" d="M1893.36,187.53v-110.9c0-44.29,26.85-70.45,72.54-70.45s72.54,26.16,72.54,70.45v13.95h-46.03v-15.69c0-16.39-8.72-26.16-25.11-26.16s-25.11,9.76-25.11,26.16v113.69c0,16.39,8.72,26.16,25.11,26.16s25.11-9.76,25.11-26.16v-29.99h-24.06v-44.29h70.1v73.23c0,43.94-26.85,69.75-72.54,69.75s-72.54-25.81-72.54-69.75Z"/>
        <path class="cls-1" d="M930.87,306.54h132.87v42.55h-84.05v56.5h66.96v42.55h-66.96v59.98h84.05v42.55h-132.87v-244.12Z"/>
        <path class="cls-1" d="M1095.47,306.54h48.82v201.57h80.21v42.55h-129.03v-244.12Z"/>
        <path class="cls-1" d="M1253.45,306.54h132.87v42.55h-84.05v56.5h66.96v42.55h-66.96v59.98h84.05v42.55h-132.87v-244.12Z"/>
        <path class="cls-1" d="M1414.21,483.7v-110.2c0-45.34,25.81-70.45,71.84-70.45s71.49,25.11,71.49,70.45v17.79h-46.03v-19.53c0-17.79-8.72-27.55-24.41-27.55s-24.06,9.77-24.06,27.55v113.69c0,17.79,8.72,27.55,24.06,27.55s24.41-9.76,24.41-27.55v-26.5h46.03v24.76c0,45.34-25.46,70.45-71.49,70.45s-71.84-25.11-71.84-70.45Z"/>
        <path class="cls-1" d="M1630.07,349.09h-50.92v-42.55h150.66v42.55h-50.92v201.57h-48.82v-201.57Z"/>
        <path class="cls-1" d="M1758.75,306.54h72.19c48.82,0,72.19,19.88,72.19,62.08v9.42c0,25.81-10.11,41.85-31.74,50.22v1.05c22.32,5.93,32.08,24.06,32.08,58.94v28.6c0,13.6.7,23.37,5.58,33.83h-49.87c-2.79-6.63-4.19-10.11-4.19-34.18v-31.74c0-23.37-8.02-31.74-30.69-31.74h-16.74v97.65h-48.82v-244.12ZM1825.36,410.46c20.23,0,28.95-8.37,28.95-27.2v-9.42c0-17.09-7.32-24.76-23.71-24.76h-23.02v61.38h17.79Z"/>
        <path class="cls-1" d="M1941.14,306.54h48.82v244.12h-48.82v-244.12Z"/>
        <path class="cls-1" d="M2026.23,483.7v-110.2c0-45.34,25.81-70.45,71.84-70.45s71.49,25.11,71.49,70.45v17.79h-46.03v-19.53c0-17.79-8.72-27.55-24.41-27.55s-24.06,9.77-24.06,27.55v113.69c0,17.79,8.72,27.55,24.06,27.55s24.41-9.76,24.41-27.55v-26.5h46.03v24.76c0,45.34-25.46,70.45-71.49,70.45s-71.84-25.11-71.84-70.45Z"/>
        <path class="cls-1" d="M2297.89,506.37h-54.75l-8.02,44.29h-46.38l50.57-244.12h65.91l50.57,244.12h-49.87l-8.02-44.29ZM2290.22,464.52l-19.88-109.16-19.53,109.16h39.41Z"/>
        <path class="cls-1" d="M2383.68,306.54h48.82v201.57h80.21v42.55h-129.03v-244.12Z"/>
        <path class="cls-1" d="M922.85,784.05v-10.81h46.03v10.81c0,15,7.67,25.81,25.11,25.81,15.34,0,25.46-9.42,25.46-25.81,0-20.92-8.37-26.16-41.5-42.2-41.85-20.23-54.05-41.15-54.05-75.33,0-39.76,25.11-66.61,72.19-66.61s70.45,26.85,70.45,67.31v6.97h-46.03v-6.63c0-15.34-6.97-26.5-24.06-26.5-15,0-23.71,9.76-23.71,24.76,0,18.83,9.42,24.41,42.2,40.1,42.9,20.58,53.36,42.2,53.36,77.07,0,41.15-25.81,68-73.58,68s-71.84-26.85-71.84-66.96Z"/>
        <path class="cls-1" d="M1100.35,603.41h132.87v42.55h-84.05v56.5h66.96v42.55h-66.96v59.98h84.05v42.55h-132.87v-244.12Z"/>
        <path class="cls-1" d="M1264.95,603.41h72.19c48.82,0,72.19,19.88,72.19,62.08v9.42c0,25.81-10.11,41.85-31.74,50.22v1.05c22.32,5.93,32.08,24.06,32.08,58.94v28.6c0,13.6.7,23.37,5.58,33.83h-49.87c-2.79-6.63-4.19-10.11-4.19-34.18v-31.74c0-23.37-8.02-31.74-30.69-31.74h-16.74v97.65h-48.82v-244.12ZM1331.56,707.33c20.23,0,28.95-8.37,28.95-27.2v-9.42c0-17.09-7.32-24.76-23.71-24.76h-23.02v61.38h17.79Z"/>
        <path class="cls-1" d="M1431.64,603.41h49.87l31.39,187.62,31.39-187.62h46.38l-47.43,243.77h-64.17l-47.43-243.77Z"/>
        <path class="cls-1" d="M1618.91,603.41h48.82v244.12h-48.82v-244.12Z"/>
        <path class="cls-1" d="M1704,780.57v-110.2c0-45.34,25.81-70.45,71.84-70.45s71.49,25.11,71.49,70.45v17.79h-46.03v-19.53c0-17.79-8.72-27.55-24.41-27.55s-24.06,9.76-24.06,27.55v113.69c0,17.79,8.72,27.55,24.06,27.55s24.41-9.76,24.41-27.55v-26.5h46.03v24.76c0,45.34-25.46,70.45-71.49,70.45s-71.84-25.11-71.84-70.45Z"/>
        <path class="cls-1" d="M1880.11,603.41h132.87v42.55h-84.05v56.5h66.96v42.55h-66.96v59.98h84.05v42.55h-132.87v-244.12Z"/>
        <path class="cls-1" d="M2037.38,784.05v-10.81h46.03v10.81c0,15,7.67,25.81,25.11,25.81,15.34,0,25.46-9.42,25.46-25.81,0-20.92-8.37-26.16-41.5-42.2-41.85-20.23-54.05-41.15-54.05-75.33,0-39.76,25.11-66.61,72.19-66.61s70.45,26.85,70.45,67.31v6.97h-46.03v-6.63c0-15.34-6.97-26.5-24.06-26.5-15,0-23.71,9.76-23.71,24.76,0,18.83,9.42,24.41,42.2,40.1,42.9,20.58,53.36,42.2,53.36,77.07,0,41.15-25.81,68-73.58,68s-71.84-26.85-71.84-66.96Z"/>
      </g>
    </g>
  </g>
</svg>